<mxfile host="app.diagrams.net" modified="2021-02-25T15:08:10.887Z" agent="5.0 (Windows NT 10.0; Win64; x64) AppleWebKit/537.36 (KHTML, like Gecko) Chrome/88.0.4324.182 Safari/537.36 Edg/88.0.705.74" etag="fIQTu9dVFV1ynm-qeoJA" version="14.4.3" type="github">
  <diagram id="TUSESRzqgibcESXzIHSU" name="第 1 页">
    <mxGraphModel dx="1002" dy="683" grid="1" gridSize="10" guides="1" tooltips="1" connect="1" arrows="1" fold="1" page="1" pageScale="1" pageWidth="827" pageHeight="1169" math="0" shadow="0">
      <root>
        <mxCell id="0" />
        <mxCell id="1" parent="0" />
        <mxCell id="eT0MgdvdTNvHPw628x5J-34" value="" style="rounded=0;whiteSpace=wrap;html=1;" vertex="1" parent="1">
          <mxGeometry x="30" y="390" width="720" height="240" as="geometry" />
        </mxCell>
        <mxCell id="eT0MgdvdTNvHPw628x5J-1" value="" style="rounded=0;whiteSpace=wrap;html=1;fillColor=#d5e8d4;strokeColor=#82b366;" vertex="1" parent="1">
          <mxGeometry x="60" y="425" width="160" height="160" as="geometry" />
        </mxCell>
        <mxCell id="eT0MgdvdTNvHPw628x5J-2" value="" style="rounded=0;whiteSpace=wrap;html=1;fillColor=#f8cecc;strokeColor=#b85450;" vertex="1" parent="1">
          <mxGeometry x="240" y="425" width="150" height="160" as="geometry" />
        </mxCell>
        <mxCell id="eT0MgdvdTNvHPw628x5J-3" value="" style="rounded=0;whiteSpace=wrap;html=1;fillColor=#e1d5e7;strokeColor=#9673a6;" vertex="1" parent="1">
          <mxGeometry x="410" y="425" width="150" height="160" as="geometry" />
        </mxCell>
        <mxCell id="eT0MgdvdTNvHPw628x5J-4" value="社区" style="text;html=1;strokeColor=none;fillColor=none;align=center;verticalAlign=middle;whiteSpace=wrap;rounded=0;" vertex="1" parent="1">
          <mxGeometry x="100" y="395" width="40" height="20" as="geometry" />
        </mxCell>
        <mxCell id="eT0MgdvdTNvHPw628x5J-5" value="工具" style="text;html=1;strokeColor=none;fillColor=none;align=center;verticalAlign=middle;whiteSpace=wrap;rounded=0;" vertex="1" parent="1">
          <mxGeometry x="290" y="395" width="40" height="20" as="geometry" />
        </mxCell>
        <mxCell id="eT0MgdvdTNvHPw628x5J-6" value="商店" style="text;html=1;strokeColor=none;fillColor=none;align=center;verticalAlign=middle;whiteSpace=wrap;rounded=0;" vertex="1" parent="1">
          <mxGeometry x="450" y="395" width="40" height="20" as="geometry" />
        </mxCell>
        <mxCell id="eT0MgdvdTNvHPw628x5J-7" value="培训教程" style="rounded=0;whiteSpace=wrap;html=1;" vertex="1" parent="1">
          <mxGeometry x="70" y="435" width="60" height="40" as="geometry" />
        </mxCell>
        <mxCell id="eT0MgdvdTNvHPw628x5J-8" value="BS架构" style="rounded=0;whiteSpace=wrap;html=1;" vertex="1" parent="1">
          <mxGeometry x="250" y="435" width="60" height="40" as="geometry" />
        </mxCell>
        <mxCell id="eT0MgdvdTNvHPw628x5J-9" value="CS架构" style="rounded=0;whiteSpace=wrap;html=1;" vertex="1" parent="1">
          <mxGeometry x="320" y="435" width="60" height="40" as="geometry" />
        </mxCell>
        <mxCell id="eT0MgdvdTNvHPw628x5J-10" value="C架构" style="rounded=0;whiteSpace=wrap;html=1;" vertex="1" parent="1">
          <mxGeometry x="250" y="485" width="60" height="40" as="geometry" />
        </mxCell>
        <mxCell id="eT0MgdvdTNvHPw628x5J-11" value="低代码" style="rounded=0;whiteSpace=wrap;html=1;" vertex="1" parent="1">
          <mxGeometry x="320" y="485" width="60" height="40" as="geometry" />
        </mxCell>
        <mxCell id="eT0MgdvdTNvHPw628x5J-12" value="上线" style="rounded=0;whiteSpace=wrap;html=1;" vertex="1" parent="1">
          <mxGeometry x="420" y="435" width="60" height="40" as="geometry" />
        </mxCell>
        <mxCell id="eT0MgdvdTNvHPw628x5J-13" value="下线" style="rounded=0;whiteSpace=wrap;html=1;" vertex="1" parent="1">
          <mxGeometry x="490" y="435" width="60" height="40" as="geometry" />
        </mxCell>
        <mxCell id="eT0MgdvdTNvHPw628x5J-14" value="评价" style="rounded=0;whiteSpace=wrap;html=1;" vertex="1" parent="1">
          <mxGeometry x="420" y="485" width="60" height="40" as="geometry" />
        </mxCell>
        <mxCell id="eT0MgdvdTNvHPw628x5J-15" value="打分" style="rounded=0;whiteSpace=wrap;html=1;" vertex="1" parent="1">
          <mxGeometry x="490" y="485" width="60" height="40" as="geometry" />
        </mxCell>
        <mxCell id="eT0MgdvdTNvHPw628x5J-16" value="浏览器" style="rounded=0;whiteSpace=wrap;html=1;" vertex="1" parent="1">
          <mxGeometry x="355" y="270" width="95" height="60" as="geometry" />
        </mxCell>
        <mxCell id="eT0MgdvdTNvHPw628x5J-20" value="个人中心" style="text;html=1;strokeColor=none;fillColor=none;align=center;verticalAlign=middle;whiteSpace=wrap;rounded=0;" vertex="1" parent="1">
          <mxGeometry x="620" y="395" width="55" height="20" as="geometry" />
        </mxCell>
        <mxCell id="eT0MgdvdTNvHPw628x5J-21" value="" style="endArrow=none;dashed=1;html=1;" edge="1" parent="1">
          <mxGeometry width="50" height="50" relative="1" as="geometry">
            <mxPoint x="30" y="362" as="sourcePoint" />
            <mxPoint x="760" y="362" as="targetPoint" />
          </mxGeometry>
        </mxCell>
        <mxCell id="eT0MgdvdTNvHPw628x5J-22" value="消息通知" style="rounded=0;whiteSpace=wrap;html=1;" vertex="1" parent="1">
          <mxGeometry x="70" y="540" width="60" height="40" as="geometry" />
        </mxCell>
        <mxCell id="eT0MgdvdTNvHPw628x5J-24" value="需求收集" style="rounded=0;whiteSpace=wrap;html=1;" vertex="1" parent="1">
          <mxGeometry x="70" y="485" width="60" height="40" as="geometry" />
        </mxCell>
        <mxCell id="eT0MgdvdTNvHPw628x5J-26" value="问题反馈" style="rounded=0;whiteSpace=wrap;html=1;" vertex="1" parent="1">
          <mxGeometry x="140" y="485" width="60" height="40" as="geometry" />
        </mxCell>
        <mxCell id="eT0MgdvdTNvHPw628x5J-27" value="支付" style="rounded=0;whiteSpace=wrap;html=1;" vertex="1" parent="1">
          <mxGeometry x="420" y="540" width="60" height="40" as="geometry" />
        </mxCell>
        <mxCell id="eT0MgdvdTNvHPw628x5J-28" value="开发规范" style="rounded=0;whiteSpace=wrap;html=1;" vertex="1" parent="1">
          <mxGeometry x="140" y="435" width="60" height="40" as="geometry" />
        </mxCell>
        <mxCell id="eT0MgdvdTNvHPw628x5J-29" value="&lt;font style=&quot;font-size: 14px&quot;&gt;&lt;b&gt;机载工业互联网&lt;/b&gt;&lt;/font&gt;" style="rounded=0;whiteSpace=wrap;html=1;" vertex="1" parent="1">
          <mxGeometry x="30" y="660" width="720" height="60" as="geometry" />
        </mxCell>
        <mxCell id="eT0MgdvdTNvHPw628x5J-30" value="" style="endArrow=classic;startArrow=classic;html=1;" edge="1" parent="1">
          <mxGeometry width="50" height="50" relative="1" as="geometry">
            <mxPoint x="402" y="384" as="sourcePoint" />
            <mxPoint x="402" y="334" as="targetPoint" />
          </mxGeometry>
        </mxCell>
        <mxCell id="eT0MgdvdTNvHPw628x5J-31" value="" style="rounded=0;whiteSpace=wrap;html=1;fillColor=#fff2cc;strokeColor=#d6b656;" vertex="1" parent="1">
          <mxGeometry x="580" y="425" width="150" height="160" as="geometry" />
        </mxCell>
        <mxCell id="eT0MgdvdTNvHPw628x5J-32" value="记录" style="rounded=0;whiteSpace=wrap;html=1;" vertex="1" parent="1">
          <mxGeometry x="590" y="435" width="60" height="40" as="geometry" />
        </mxCell>
        <mxCell id="eT0MgdvdTNvHPw628x5J-35" value="&lt;b&gt;&lt;font style=&quot;font-size: 16px&quot;&gt;工业APP研发平台&lt;/font&gt;&lt;/b&gt;" style="text;html=1;strokeColor=none;fillColor=none;align=center;verticalAlign=middle;whiteSpace=wrap;rounded=0;" vertex="1" parent="1">
          <mxGeometry x="330" y="599" width="140" height="20" as="geometry" />
        </mxCell>
      </root>
    </mxGraphModel>
  </diagram>
</mxfile>
